<svg xmlns="http://www.w3.org/2000/svg" viewBox="0 0 250 250"><path d="M230.28,91.52a266.31,266.31,0,0,0-26.14,32.61,179,179,0,0,0-16.77,30q-5.7,13.56-5.7,21.42c0,3.25.6,5.61,1.82,7.09s3.12,2.21,5.71,2.21a16.19,16.19,0,0,0,6.58-1.33,46.44,46.44,0,0,0,6.76-3.76q3.71-2.43,7-4.65,4.65-2.77,9.13-5.93t7-5c1.29-1,14.76-11,21.07-15.61a124.58,124.58,0,0,0-6.13-68.49C238.75,82.35,235.32,86.14,230.28,91.52Z"/><path d="M124.43,3.17q4.09,4.71,4.09,13a50.32,50.32,0,0,1-1,9.2q-1,5.1-2.44,10.32T120,52.48q-3.63,11.58-4.77,15.32a179,179,0,0,1-9.25,24q-4.93,10.59-13.43,27.11s44-40.82,49.13-45.17a140.51,140.51,0,0,1,16.78-12.4q7.8-4.83,10.57-4.82c2.59,0,4.89,1.42,6.92,4.26a15.44,15.44,0,0,1,3,9.14q0,3.21-4.21,12.29t-12.29,23.25q-8.08,14.18-21.37,36.54,12.62-13.39,26.24-27.57t20.27-20.71a131.27,131.27,0,0,1,11.07-10q6.09-4.65,12.23-10l9.69-8.47A45.8,45.8,0,0,1,227,60.51a12.76,12.76,0,0,1,3.13-1.36A123.89,123.89,0,0,0,125,1c-1,0-2,0-2.93,0A12.82,12.82,0,0,1,124.43,3.17Z"/><path d="M211.51,185.14A176.91,176.91,0,0,1,196.84,196a82.07,82.07,0,0,1-12.13,6.87,21.86,21.86,0,0,1-8.25,2,16.83,16.83,0,0,1-13.4-6.09q-5.2-6.08-5.2-15.72a56.92,56.92,0,0,1,4.48-21.92,113,113,0,0,1,12.79-22.43q8.31-11.57,20.82-26,9.3-10.64,9.3-12a1.8,1.8,0,0,0-.55-1.33,1.7,1.7,0,0,0-1.22-.55q-2.1,0-13,9.3t-27.84,27.35q-17,18-36.71,43-1.11,1.33-7,9a106,106,0,0,1-8.36,10q-2.44,2.33-4.21,2.32-3.11,0-5.37-6.25a38.91,38.91,0,0,1-2.27-13.35,19,19,0,0,1,2.82-9.3q2.83-5,12.29-17.88t15.67-21.76q6.21-8.85,13.62-21.48,5.2-8.75,7.7-14a21.84,21.84,0,0,0,2.49-9.19c0-2.29-.66-3.44-2-3.44-2.81,0-74.12,63-74.12,63-6.66,11.27-7.88,12-14.57,22S50,186.62,44.82,193.16A137.76,137.76,0,0,1,32.26,207.3a124,124,0,0,0,212-48.31C234.37,167.33,215.66,181.74,211.51,185.14Z"/><path d="M28.59,174.43Q42.38,156,72.23,135.22q12.93-24.85,21.33-45.17t12.83-34.73q4.42-14.41,6.18-23.15A77.09,77.09,0,0,0,114.33,21c0-3.25-1.24-4.88-3.74-4.88q-3.06,0-9,3.52a66.83,66.83,0,0,0-12.88,10.5A102.8,102.8,0,0,0,75.74,46.35,134.27,134.27,0,0,0,64.79,66.73a159.73,159.73,0,0,0-7.6,20.82q-2.67,9.54-2.67,15.32c0,1,.15,3.14.45,6.47l2.5-3.86a32.13,32.13,0,0,1,3.75-4.65,25.53,25.53,0,0,1,4.76-4A12.91,12.91,0,0,1,69.5,95c1.36-.5,2-.44,2,.17q0,.68-6.47,8.57T53.84,118a31.88,31.88,0,0,1-7.26,6.81Q42,128,39.2,128a4.32,4.32,0,0,1-4.48-3.18q-1.08-3.18-1.08-10.1,0-16.7,5.73-37.12A137.23,137.23,0,0,1,54.75,41.7,103.24,103.24,0,0,1,73.93,19.51,115.2,115.2,0,0,1,94.67,4.74,124.06,124.06,0,0,0,19.09,189.53,96.87,96.87,0,0,1,28.59,174.43Z"/></svg>