<svg xmlns="http://www.w3.org/2000/svg" viewBox="0 0 250 250"><path d="M70.93,162.05q10.48-20.15,17.29-36.6T98.61,97.31q3.58-11.67,5-18.76a63.49,63.49,0,0,0,1.43-9c0-2.63-1-4-3-4q-2.48,0-7.31,2.85A53.37,53.37,0,0,0,84.26,77a83,83,0,0,0-10.48,13.1,108.1,108.1,0,0,0-8.87,16.5,130,130,0,0,0-6.16,16.88,48.73,48.73,0,0,0-2.16,12.41c0,.8.12,2.55.36,5.24L59,138a25.53,25.53,0,0,1,3-3.77A20.75,20.75,0,0,1,65.87,131a10.7,10.7,0,0,1,2.85-1.52c1.11-.4,1.66-.35,1.66.14s-1.75,2.68-5.24,6.94-6.53,8.11-9.11,11.54a25.51,25.51,0,0,1-5.88,5.52c-2.45,1.72-4.45,2.58-6,2.58a3.5,3.5,0,0,1-3.63-2.58,27.8,27.8,0,0,1-.87-8.18,112,112,0,0,1,4.64-30.07A111,111,0,0,1,56.77,86.28a83.9,83.9,0,0,1,15.54-18A91.4,91.4,0,0,1,90.2,55.75q8.68-4.5,13.65-4.51,6.08,0,9.38,3.82t3.31,10.53a40.61,40.61,0,0,1-.78,7.45q-.78,4.14-2,8.36c-.8,2.83-2.17,7.36-4.14,13.61s-3.25,10.4-3.86,12.42a146.59,146.59,0,0,1-7.49,19.45q-4,8.58-10.89,22s35.65-33.08,39.81-36.61a116,116,0,0,1,13.59-10q6.33-3.92,8.57-3.91c2.1,0,4,1.16,5.61,3.46a12.53,12.53,0,0,1,2.47,7.4q0,2.59-3.41,10t-10,18.84q-6.56,11.48-17.31,29.6Q137,156.7,148,145.21t16.41-16.77a107.59,107.59,0,0,1,9-8.08q4.92-3.77,9.91-8.12l7.85-6.86a37.58,37.58,0,0,1,5.11-3.86,8.22,8.22,0,0,1,4.13-1.34q2.33,0,5.88,5.38t3.54,6.91c0,1.25-.7,2.75-2.11,4.48s-4.32,5-8.75,9.69a216.59,216.59,0,0,0-21.17,26.42,145.25,145.25,0,0,0-13.59,24.32q-4.62,11-4.62,17.36,0,3.94,1.48,5.74a5.67,5.67,0,0,0,4.62,1.79,13.2,13.2,0,0,0,5.34-1.08,36.84,36.84,0,0,0,5.8-3c2.94-1.82,27.17-18.14,34.69-26.6A98.07,98.07,0,1,0,44.17,184,191,191,0,0,1,70.93,162.05Z"/><path d="M155.38,218.51a13.63,13.63,0,0,1-10.85-4.94q-4.22-4.92-4.22-12.73a46.22,46.22,0,0,1,3.63-17.77,91.45,91.45,0,0,1,10.37-18.16q6.72-9.37,16.86-21,7.54-8.61,7.54-9.69a1.47,1.47,0,0,0-.45-1.08,1.38,1.38,0,0,0-1-.45q-1.7,0-10.49,7.54a310.24,310.24,0,0,0-22.57,22.16Q130.44,177,114.47,197.16q-.89,1.07-5.69,7.31a84.53,84.53,0,0,1-6.78,8.12c-1.31,1.25-2.45,1.88-3.41,1.88q-2.5,0-4.35-5.07a31.59,31.59,0,0,1-1.84-10.81,15.47,15.47,0,0,1,2.29-7.53q2.3-4,10-14.49t12.69-17.63q5-7.17,11-17.41,4.22-7.08,6.23-11.3a17.59,17.59,0,0,0,2-7.45c0-1.85-.53-2.78-1.61-2.78C132.74,120,75,171,75,171c-5.39,9.13-6.38,9.7-11.81,17.83-2.28,3.41-4.44,6.55-6.5,9.47A98.13,98.13,0,0,0,164,216.77C161.21,217.44,157.23,218.51,155.38,218.51Z"/><path d="M125,1A124,124,0,0,0,28.22,202.51q1.77-2.74,4-5.68c1.46-2,3.1-4,4.9-6A109.84,109.84,0,0,1,202.66,47.34a109.83,109.83,0,0,1-152,158.49c-1.75,2.37-3.41,4.56-5,6.55-1.32,1.67-2.58,3.2-3.8,4.63A124,124,0,1,0,125,1Z"/></svg>