<svg xmlns="http://www.w3.org/2000/svg" viewBox="0 0 250 250"><path d="M125,1A124,124,0,1,0,249,125,124,124,0,0,0,125,1Zm0,33.88c4.46,2.8,14.19,14,15.7,18.92-12,17.64-14.41,37.54-15.7,42.28-1.29-4.74-3.72-24.64-15.7-42.28C110.81,48.92,120.54,37.68,125,34.88Zm75.33,60.47c-5.53,8.64-6.28,13.55-5.6,32.08,2,55.29-17.3,79.9-56.36,80.54-5.79.1-10.81,3.84-13.37,7.15-2.56-3.31-7.58-7.05-13.37-7.15-39.06-.64-58.38-25.25-56.36-80.54C56,108.9,55.2,104,49.67,95.35c-.55-.86-1.56-3,1.17-1.27,9,5.66,16.36,16,19.25,32.25,6.49,36.52,20.41,66.9,47.35,70.28,1.65.21,2.44.09,3-.93.64-1.19-.13-1.92-1.42-2.59-36.54-18.3-43.75-59.72-31.56-94.58,5-14.26,7.86-29.62,7.68-42.26,0-1.28.32-1.42,1.13-.47C117.19,72.67,123.56,108.23,125,120c1.44-11.72,7.81-47.28,28.73-64.17.81-1,1.11-.81,1.13.47-.18,12.64,2.7,28,7.68,42.26,12.19,34.86,5,76.28-31.56,94.58-1.29.67-2.06,1.4-1.42,2.59.56,1,1.35,1.14,3,.93,26.94-3.38,40.86-33.76,47.35-70.28,2.89-16.23,10.28-26.59,19.25-32.25C201.89,92.36,200.88,94.49,200.33,95.35Z"/></svg>